STARTFONT 2.1
FONT -Monotype-Bembo-Bold-R-Normal--18-180-72-72-P-92-iso8859-1
SIZE 18 72 72
FONTBOUNDINGBOX 21 22 -1 -5

STARTPROPERTIES 22
FOUNDRY "Monotype"
FAMILY_NAME "Bembo"
WEIGHT_NAME "Bold"
SLANT "R"
SETWIDTH_NAME "Normal"
ADD_STYLE_NAME ""
PIXEL_SIZE 18
POINT_SIZE 180
RESOLUTION_X 72
RESOLUTION_Y 72
SPACING "P"
AVERAGE_WIDTH 92
CHARSET_REGISTRY "iso8859"
CHARSET_ENCODING "1"
COPYRIGHT "Copyright (c) 1996 Monotype Typography Ltd."
CAP_HEIGHT 13
X_HEIGHT 8
WEIGHT 10
QUAD_WIDTH 12
DEFAULT_CHAR 32
FONT_DESCENT 5
FONT_ASCENT 17
ENDPROPERTIES

CHARS 191

STARTCHAR space
ENCODING 32
SWIDTH 333 0
DWIDTH 7 0
BBX 0 0 0 0
BITMAP
ENDCHAR

STARTCHAR exclam
ENCODING 33
SWIDTH 313 0
DWIDTH 6 0
BBX 3 13 1 0
BITMAP
40
E0
E0
E0
E0
40
40
40
00
00
E0
E0
E0
ENDCHAR

STARTCHAR quotedbl
ENCODING 34
SWIDTH 552 0
DWIDTH 10 0
BBX 5 5 2 7
BITMAP
D8
D8
D8
D8
D8
ENDCHAR

STARTCHAR numbersign
ENCODING 35
SWIDTH 668 0
DWIDTH 13 0
BBX 11 12 1 0
BITMAP
18C0
18C0
18C0
FFE0
FFE0
3180
3180
FFE0
FFE0
6300
6300
6300
ENDCHAR

STARTCHAR dollar
ENCODING 36
SWIDTH 479 0
DWIDTH 9 0
BBX 8 15 0 -2
BITMAP
10
7C
D6
D6
D0
F0
7C
1E
17
13
D3
D7
7E
10
10
ENDCHAR

STARTCHAR percent
ENCODING 37
SWIDTH 896 0
DWIDTH 17 0
BBX 13 12 2 0
BITMAP
7018
D830
D860
D8C0
D980
7300
0670
0CD8
18D8
30D8
60D8
C070
ENDCHAR

STARTCHAR ampersand
ENCODING 38
SWIDTH 750 0
DWIDTH 14 0
BBX 13 11 0 0
BITMAP
1E00
3300
3300
3378
1E30
3E20
6740
E380
E3C0
F2F8
7C70
ENDCHAR

STARTCHAR quoteright
ENCODING 39
SWIDTH 313 0
DWIDTH 6 0
BBX 3 5 1 7
BITMAP
E0
E0
E0
20
C0
ENDCHAR

STARTCHAR parenleft
ENCODING 40
SWIDTH 354 0
DWIDTH 7 0
BBX 5 16 2 -4
BITMAP
08
10
30
60
60
C0
C0
C0
C0
C0
C0
60
60
30
10
08
ENDCHAR

STARTCHAR parenright
ENCODING 41
SWIDTH 354 0
DWIDTH 7 0
BBX 5 16 1 -4
BITMAP
80
40
60
30
30
18
18
18
18
18
18
30
30
60
40
80
ENDCHAR

STARTCHAR asterisk
ENCODING 42
SWIDTH 521 0
DWIDTH 10 0
BBX 8 8 1 4
BITMAP
18
18
DB
FF
3C
3C
FF
C3
ENDCHAR

STARTCHAR plus
ENCODING 43
SWIDTH 667 0
DWIDTH 13 0
BBX 10 10 1 1
BITMAP
0C00
0C00
0C00
0C00
FFC0
FFC0
0C00
0C00
0C00
0C00
ENDCHAR

STARTCHAR comma
ENCODING 44
SWIDTH 313 0
DWIDTH 6 0
BBX 3 5 1 -2
BITMAP
E0
E0
E0
20
C0
ENDCHAR

STARTCHAR minus
ENCODING 45
SWIDTH 667 0
DWIDTH 13 0
BBX 11 2 1 5
BITMAP
FFE0
FFE0
ENDCHAR

STARTCHAR period
ENCODING 46
SWIDTH 313 0
DWIDTH 6 0
BBX 3 3 1 0
BITMAP
E0
E0
E0
ENDCHAR

STARTCHAR slash
ENCODING 47
SWIDTH 531 0
DWIDTH 10 0
BBX 8 13 1 -1
BITMAP
03
03
06
06
0C
0C
18
18
30
30
60
60
C0
ENDCHAR

STARTCHAR zero
ENCODING 48
SWIDTH 500 0
DWIDTH 10 0
BBX 8 12 1 0
BITMAP
3C
66
E7
E7
E7
E7
E7
E7
E7
E7
66
3C
ENDCHAR

STARTCHAR one
ENCODING 49
SWIDTH 500 0
DWIDTH 10 0
BBX 7 12 1 0
BITMAP
18
38
78
38
38
38
38
38
38
38
38
FE
ENDCHAR

STARTCHAR two
ENCODING 50
SWIDTH 500 0
DWIDTH 10 0
BBX 8 12 1 0
BITMAP
7E
CF
87
07
06
0C
0C
18
31
7F
FF
FF
ENDCHAR

STARTCHAR three
ENCODING 51
SWIDTH 500 0
DWIDTH 10 0
BBX 7 12 1 0
BITMAP
3C
6E
4E
0C
18
3C
0E
0E
0E
CE
DC
78
ENDCHAR

STARTCHAR four
ENCODING 52
SWIDTH 500 0
DWIDTH 10 0
BBX 9 12 0 0
BITMAP
0100
0300
0700
0F00
1700
2700
4700
FF80
FF80
0700
0700
0700
ENDCHAR

STARTCHAR five
ENCODING 53
SWIDTH 500 0
DWIDTH 10 0
BBX 8 13 1 0
BITMAP
02
7E
7E
7E
40
7C
7E
0F
07
07
C7
CE
7C
ENDCHAR

STARTCHAR six
ENCODING 54
SWIDTH 500 0
DWIDTH 10 0
BBX 8 12 1 0
BITMAP
0E
30
60
60
EC
F6
E7
E7
E7
E7
66
3C
ENDCHAR

STARTCHAR seven
ENCODING 55
SWIDTH 500 0
DWIDTH 10 0
BBX 8 12 1 0
BITMAP
FF
FF
FF
86
06
0C
0C
18
18
30
30
60
ENDCHAR

STARTCHAR eight
ENCODING 56
SWIDTH 500 0
DWIDTH 10 0
BBX 8 12 1 0
BITMAP
3C
66
E3
E3
76
3C
7E
CF
C7
C7
6E
3C
ENDCHAR

STARTCHAR nine
ENCODING 57
SWIDTH 500 0
DWIDTH 10 0
BBX 8 12 1 0
BITMAP
3C
66
E7
E7
E7
E7
6F
37
06
06
0C
70
ENDCHAR

STARTCHAR colon
ENCODING 58
SWIDTH 313 0
DWIDTH 6 0
BBX 3 8 1 0
BITMAP
E0
E0
E0
00
00
E0
E0
E0
ENDCHAR

STARTCHAR semicolon
ENCODING 59
SWIDTH 313 0
DWIDTH 6 0
BBX 3 10 1 -2
BITMAP
E0
E0
E0
00
00
E0
E0
E0
20
C0
ENDCHAR

STARTCHAR less
ENCODING 60
SWIDTH 667 0
DWIDTH 13 0
BBX 10 10 1 1
BITMAP
00C0
03C0
0F00
3800
E000
E000
3800
0F00
03C0
00C0
ENDCHAR

STARTCHAR equal
ENCODING 61
SWIDTH 667 0
DWIDTH 13 0
BBX 10 6 1 3
BITMAP
FFC0
FFC0
0000
0000
FFC0
FFC0
ENDCHAR

STARTCHAR greater
ENCODING 62
SWIDTH 667 0
DWIDTH 13 0
BBX 10 10 1 1
BITMAP
C000
F000
3C00
0700
01C0
01C0
0700
3C00
F000
C000
ENDCHAR

STARTCHAR question
ENCODING 63
SWIDTH 365 0
DWIDTH 7 0
BBX 6 13 0 0
BITMAP
70
F8
64
0C
3C
78
70
40
00
00
70
70
70
ENDCHAR

STARTCHAR at
ENCODING 64
SWIDTH 927 0
DWIDTH 18 0
BBX 16 17 1 -4
BITMAP
03F0
0C0C
1002
2002
4199
4361
8661
8661
8C61
8CC2
8CC2
8DCC
4670
4001
2002
180C
07F0
ENDCHAR

STARTCHAR A
ENCODING 65
SWIDTH 740 0
DWIDTH 14 0
BBX 14 12 0 0
BITMAP
0300
0380
0380
05C0
05C0
08E0
08E0
1FF0
1070
2038
2038
F8FC
ENDCHAR

STARTCHAR B
ENCODING 66
SWIDTH 698 0
DWIDTH 13 0
BBX 12 12 0 0
BITMAP
FFC0
38E0
38E0
38E0
38C0
3F80
38E0
3870
3870
3870
38E0
FFC0
ENDCHAR

STARTCHAR C
ENCODING 67
SWIDTH 740 0
DWIDTH 14 0
BBX 11 12 1 0
BITMAP
0FE0
3860
7020
6000
E000
E000
E000
E000
6000
7020
3860
0F80
ENDCHAR

STARTCHAR D
ENCODING 68
SWIDTH 823 0
DWIDTH 16 0
BBX 15 12 0 0
BITMAP
FFE0
3838
381C
380C
380E
380E
380E
380E
380C
381C
3838
FFE0
ENDCHAR

STARTCHAR E
ENCODING 69
SWIDTH 646 0
DWIDTH 12 0
BBX 11 12 0 0
BITMAP
FFC0
3840
3800
3800
3880
3F80
3880
3800
3800
3820
3820
FFE0
ENDCHAR

STARTCHAR F
ENCODING 70
SWIDTH 594 0
DWIDTH 11 0
BBX 10 12 0 0
BITMAP
FFC0
3840
3800
3800
3880
3F80
3880
3800
3800
3800
3800
FE00
ENDCHAR

STARTCHAR G
ENCODING 71
SWIDTH 781 0
DWIDTH 15 0
BBX 13 12 1 0
BITMAP
0FF0
3830
7010
6000
E000
E000
E1F8
E070
6070
7070
3870
0FE0
ENDCHAR

STARTCHAR H
ENCODING 72
SWIDTH 833 0
DWIDTH 16 0
BBX 16 12 0 0
BITMAP
FE7F
381C
381C
381C
381C
3FFC
381C
381C
381C
381C
381C
FE7F
ENDCHAR

STARTCHAR I
ENCODING 73
SWIDTH 365 0
DWIDTH 7 0
BBX 7 12 0 0
BITMAP
FE
38
38
38
38
38
38
38
38
38
38
FE
ENDCHAR

STARTCHAR J
ENCODING 74
SWIDTH 344 0
DWIDTH 7 0
BBX 8 16 -1 -4
BITMAP
7F
1C
1C
1C
1C
1C
1C
1C
1C
1C
1C
1C
1C
1C
D8
F0
ENDCHAR

STARTCHAR K
ENCODING 75
SWIDTH 740 0
DWIDTH 14 0
BBX 14 12 0 0
BITMAP
FEF8
3860
38C0
3980
3B00
3E00
3F00
3B80
39C0
38E0
3870
FEFC
ENDCHAR

STARTCHAR L
ENCODING 76
SWIDTH 604 0
DWIDTH 11 0
BBX 10 12 0 0
BITMAP
FE00
3800
3800
3800
3800
3800
3800
3800
3800
3840
38C0
FF80
ENDCHAR

STARTCHAR M
ENCODING 77
SWIDTH 927 0
DWIDTH 18 0
BBX 18 12 0 0
BITMAP
F807C0
3C0F00
3C0F00
2E1700
2E1700
272700
272700
23C700
23C700
21C700
218700
F99FC0
ENDCHAR

STARTCHAR N
ENCODING 78
SWIDTH 813 0
DWIDTH 15 0
BBX 15 12 0 0
BITMAP
F03E
3808
3C08
2E08
2708
2388
21C8
20E8
2078
2038
2018
F808
ENDCHAR

STARTCHAR O
ENCODING 79
SWIDTH 844 0
DWIDTH 16 0
BBX 14 12 1 0
BITMAP
0FC0
3870
7038
6018
E01C
E01C
E01C
E01C
6018
7038
3870
0FC0
ENDCHAR

STARTCHAR P
ENCODING 80
SWIDTH 646 0
DWIDTH 12 0
BBX 11 12 0 0
BITMAP
FF80
39C0
38E0
38E0
38E0
39C0
3F80
3800
3800
3800
3800
FE00
ENDCHAR

STARTCHAR Q
ENCODING 81
SWIDTH 844 0
DWIDTH 16 0
BBX 14 17 1 -5
BITMAP
0FC0
3870
7038
6018
E01C
E01C
E01C
E01C
6018
7038
3870
0FC0
0780
01C0
00E0
0070
001C
ENDCHAR

STARTCHAR R
ENCODING 82
SWIDTH 771 0
DWIDTH 15 0
BBX 14 12 1 0
BITMAP
FF80
71C0
70E0
70E0
70E0
71C0
7F80
7380
71C0
70E0
7070
FC3C
ENDCHAR

STARTCHAR S
ENCODING 83
SWIDTH 563 0
DWIDTH 11 0
BBX 9 12 1 0
BITMAP
3F00
6300
C100
E000
7800
3E00
0F00
0380
8180
C180
E300
7E00
ENDCHAR

STARTCHAR T
ENCODING 84
SWIDTH 729 0
DWIDTH 14 0
BBX 11 12 1 0
BITMAP
FFE0
8E20
8E20
0E00
0E00
0E00
0E00
0E00
0E00
0E00
0E00
3F80
ENDCHAR

STARTCHAR U
ENCODING 85
SWIDTH 771 0
DWIDTH 15 0
BBX 15 12 0 0
BITMAP
FE3E
3808
3808
3808
3808
3808
3808
3808
3808
3808
1C10
0FE0
ENDCHAR

STARTCHAR V
ENCODING 86
SWIDTH 750 0
DWIDTH 14 0
BBX 14 12 0 0
BITMAP
FE7C
3810
3810
1C20
1C20
0E40
0E40
0680
0780
0380
0300
0100
ENDCHAR

STARTCHAR W
ENCODING 87
SWIDTH 1000 0
DWIDTH 19 0
BBX 20 12 0 0
BITMAP
FBFCF0
39C840
39C840
1CD080
1CF080
0E7100
0E7100
077A00
077A00
039C00
039C00
010800
ENDCHAR

STARTCHAR X
ENCODING 88
SWIDTH 802 0
DWIDTH 15 0
BBX 14 12 0 0
BITMAP
FC7C
3810
1C20
0E40
0780
0300
0380
05C0
08E0
1070
2038
F07C
ENDCHAR

STARTCHAR Y
ENCODING 89
SWIDTH 750 0
DWIDTH 14 0
BBX 14 12 0 0
BITMAP
FE7C
3810
1C20
0E40
0780
0380
0380
0380
0380
0380
0380
0FE0
ENDCHAR

STARTCHAR Z
ENCODING 90
SWIDTH 750 0
DWIDTH 14 0
BBX 12 12 1 0
BITMAP
FFF0
8070
80E0
01C0
0380
0700
0E00
1C00
3800
7010
E010
FFF0
ENDCHAR

STARTCHAR bracketleft
ENCODING 91
SWIDTH 365 0
DWIDTH 7 0
BBX 5 16 2 -4
BITMAP
F8
E0
E0
E0
E0
E0
E0
E0
E0
E0
E0
E0
E0
E0
E0
F8
ENDCHAR

STARTCHAR backslash
ENCODING 92
SWIDTH 531 0
DWIDTH 10 0
BBX 8 13 1 -1
BITMAP
C0
C0
60
60
30
30
18
18
0C
0C
06
06
03
ENDCHAR

STARTCHAR bracketright
ENCODING 93
SWIDTH 365 0
DWIDTH 7 0
BBX 5 16 0 -4
BITMAP
F8
38
38
38
38
38
38
38
38
38
38
38
38
38
38
F8
ENDCHAR

STARTCHAR asciicircum
ENCODING 94
SWIDTH 583 0
DWIDTH 11 0
BBX 11 7 0 6
BITMAP
0400
0E00
1B00
3180
60C0
C060
8020
ENDCHAR

STARTCHAR underscore
ENCODING 95
SWIDTH 500 0
DWIDTH 10 0
BBX 10 2 0 -3
BITMAP
FFC0
FFC0
ENDCHAR

STARTCHAR quoteleft
ENCODING 96
SWIDTH 313 0
DWIDTH 6 0
BBX 3 5 2 7
BITMAP
60
80
E0
E0
E0
ENDCHAR

STARTCHAR a
ENCODING 97
SWIDTH 479 0
DWIDTH 9 0
BBX 8 8 0 0
BITMAP
3C
6E
0E
3E
6E
CE
EE
77
ENDCHAR

STARTCHAR b
ENCODING 98
SWIDTH 573 0
DWIDTH 11 0
BBX 9 13 0 0
BITMAP
3000
F000
7000
7000
7000
7600
7B00
7380
7380
7380
7380
7700
7E00
ENDCHAR

STARTCHAR c
ENCODING 99
SWIDTH 490 0
DWIDTH 9 0
BBX 7 8 1 0
BITMAP
3C
66
E2
E0
E0
E0
72
3C
ENDCHAR

STARTCHAR d
ENCODING 100
SWIDTH 573 0
DWIDTH 11 0
BBX 9 13 1 0
BITMAP
0300
0F00
0700
0700
0700
3F00
7700
E700
E700
E700
E700
7700
3B80
ENDCHAR

STARTCHAR e
ENCODING 101
SWIDTH 479 0
DWIDTH 9 0
BBX 7 8 1 0
BITMAP
38
6C
EE
FE
E0
E0
72
3C
ENDCHAR

STARTCHAR f
ENCODING 102
SWIDTH 323 0
DWIDTH 6 0
BBX 7 13 0 0
BITMAP
1C
36
70
70
70
F8
70
70
70
70
70
70
F8
ENDCHAR

STARTCHAR g
ENCODING 103
SWIDTH 552 0
DWIDTH 10 0
BBX 8 12 1 -4
BITMAP
7E
DC
CC
EC
78
C0
FE
7F
7F
C3
E6
78
ENDCHAR

STARTCHAR h
ENCODING 104
SWIDTH 563 0
DWIDTH 11 0
BBX 10 13 0 0
BITMAP
3000
F000
7000
7000
7000
7700
7B80
7380
7380
7380
7380
7380
FBC0
ENDCHAR

STARTCHAR i
ENCODING 105
SWIDTH 292 0
DWIDTH 6 0
BBX 5 12 0 0
BITMAP
70
70
70
00
30
F0
70
70
70
70
70
F8
ENDCHAR

STARTCHAR j
ENCODING 106
SWIDTH 281 0
DWIDTH 5 0
BBX 5 16 -1 -4
BITMAP
38
38
38
00
18
78
38
38
38
38
38
38
38
38
B0
E0
ENDCHAR

STARTCHAR k
ENCODING 107
SWIDTH 542 0
DWIDTH 10 0
BBX 10 13 0 0
BITMAP
3000
F000
7000
7000
7000
7780
7300
7400
7C00
7E00
7700
7380
FBC0
ENDCHAR

STARTCHAR l
ENCODING 108
SWIDTH 271 0
DWIDTH 5 0
BBX 5 13 0 0
BITMAP
30
F0
70
70
70
70
70
70
70
70
70
70
F8
ENDCHAR

STARTCHAR m
ENCODING 109
SWIDTH 927 0
DWIDTH 18 0
BBX 17 8 0 0
BITMAP
379E00
F9E700
71C700
71C700
71C700
71C700
71C700
FBEF80
ENDCHAR

STARTCHAR n
ENCODING 110
SWIDTH 573 0
DWIDTH 11 0
BBX 10 8 0 0
BITMAP
3700
FB80
7380
7380
7380
7380
7380
FBC0
ENDCHAR

STARTCHAR o
ENCODING 111
SWIDTH 573 0
DWIDTH 11 0
BBX 8 8 1 0
BITMAP
3C
6E
E7
E7
E7
E7
76
3C
ENDCHAR

STARTCHAR p
ENCODING 112
SWIDTH 573 0
DWIDTH 11 0
BBX 9 12 0 -4
BITMAP
3600
FB00
7380
7380
7380
7380
7300
7E00
7000
7000
7000
F800
ENDCHAR

STARTCHAR q
ENCODING 113
SWIDTH 573 0
DWIDTH 11 0
BBX 9 12 1 -4
BITMAP
3D00
7700
E700
E700
E700
E700
7700
3F00
0700
0700
0700
0F80
ENDCHAR

STARTCHAR r
ENCODING 114
SWIDTH 396 0
DWIDTH 8 0
BBX 7 8 0 0
BITMAP
36
FE
70
70
70
70
70
F8
ENDCHAR

STARTCHAR s
ENCODING 115
SWIDTH 375 0
DWIDTH 7 0
BBX 6 8 0 0
BITMAP
7C
E4
F0
78
3C
1C
8C
F8
ENDCHAR

STARTCHAR t
ENCODING 116
SWIDTH 344 0
DWIDTH 7 0
BBX 7 10 0 0
BITMAP
10
30
FC
70
70
70
70
70
72
3C
ENDCHAR

STARTCHAR u
ENCODING 117
SWIDTH 573 0
DWIDTH 11 0
BBX 10 8 0 0
BITMAP
3180
F780
7380
7380
7380
7380
7780
3BC0
ENDCHAR

STARTCHAR v
ENCODING 118
SWIDTH 521 0
DWIDTH 10 0
BBX 10 8 0 0
BITMAP
F9C0
7080
7100
3900
3A00
1E00
1C00
0C00
ENDCHAR

STARTCHAR w
ENCODING 119
SWIDTH 781 0
DWIDTH 15 0
BBX 15 8 0 0
BITMAP
F7CE
7384
7388
39C8
3BD0
1EF0
1CE0
0C60
ENDCHAR

STARTCHAR x
ENCODING 120
SWIDTH 531 0
DWIDTH 10 0
BBX 10 8 0 0
BITMAP
FB80
7300
3E00
1C00
1E00
3700
6380
F7C0
ENDCHAR

STARTCHAR y
ENCODING 121
SWIDTH 521 0
DWIDTH 10 0
BBX 10 12 0 -4
BITMAP
FBC0
7080
7100
3900
3A00
1E00
0C00
0C00
0800
1000
7000
6000
ENDCHAR

STARTCHAR z
ENCODING 122
SWIDTH 510 0
DWIDTH 10 0
BBX 8 8 1 0
BITMAP
FF
87
0E
1C
38
70
E1
FF
ENDCHAR

STARTCHAR braceleft
ENCODING 123
SWIDTH 396 0
DWIDTH 8 0
BBX 5 16 2 -4
BITMAP
18
20
60
60
60
60
40
80
40
60
60
60
60
60
20
18
ENDCHAR

STARTCHAR bar
ENCODING 124
SWIDTH 566 0
DWIDTH 11 0
BBX 2 16 4 -4
BITMAP
C0
C0
C0
C0
C0
C0
C0
C0
C0
C0
C0
C0
C0
C0
C0
C0
ENDCHAR

STARTCHAR braceright
ENCODING 125
SWIDTH 396 0
DWIDTH 8 0
BBX 5 16 1 -4
BITMAP
C0
20
30
30
30
30
10
08
10
30
30
30
30
30
20
C0
ENDCHAR

STARTCHAR asciitilde
ENCODING 126
SWIDTH 521 0
DWIDTH 10 0
BBX 9 3 0 4
BITMAP
7880
DD80
8F00
ENDCHAR

STARTCHAR space
ENCODING 160
SWIDTH 333 0
DWIDTH 6 0
BBX 0 0 0 0
BITMAP
ENDCHAR

STARTCHAR exclamdown
ENCODING 161
SWIDTH 313 0
DWIDTH 6 0
BBX 3 13 1 -4
BITMAP
E0
E0
E0
00
00
40
40
40
E0
E0
E0
E0
40
ENDCHAR

STARTCHAR cent
ENCODING 162
SWIDTH 490 0
DWIDTH 9 0
BBX 7 12 1 -2
BITMAP
04
04
3C
7E
EA
E8
E8
F0
76
3C
20
20
ENDCHAR

STARTCHAR sterling
ENCODING 163
SWIDTH 833 0
DWIDTH 16 0
BBX 14 17 1 -4
BITMAP
0038
004C
00CC
0180
0380
0300
0700
0600
0E00
0C00
7F80
1800
1800
3E0C
678C
C1C8
C070
ENDCHAR

STARTCHAR currency
ENCODING 164
SWIDTH 667 0
DWIDTH 13 0
BBX 9 9 2 2
BITMAP
DD80
FF80
6300
C180
C180
C180
6300
FF80
DD80
ENDCHAR

STARTCHAR yen
ENCODING 165
SWIDTH 500 0
DWIDTH 10 0
BBX 12 12 -1 0
BITMAP
FDF0
3040
1880
0D00
0700
3FE0
0700
0700
3FE0
0700
0700
0F80
ENDCHAR

STARTCHAR brokenbar
ENCODING 166
SWIDTH 566 0
DWIDTH 11 0
BBX 2 16 4 -4
BITMAP
C0
C0
C0
C0
C0
C0
C0
00
00
C0
C0
C0
C0
C0
C0
C0
ENDCHAR

STARTCHAR section
ENCODING 167
SWIDTH 469 0
DWIDTH 9 0
BBX 7 16 1 -3
BITMAP
3C
66
60
F0
D8
D8
CC
CC
66
66
36
36
1E
0C
CC
78
ENDCHAR

STARTCHAR dieresis
ENCODING 168
SWIDTH 333 0
DWIDTH 6 0
BBX 6 2 0 10
BITMAP
CC
CC
ENDCHAR

STARTCHAR copyright
ENCODING 169
SWIDTH 750 0
DWIDTH 14 0
BBX 13 13 0 0
BITMAP
0F80
3060
4010
4710
8C88
8C08
8C08
8C08
8C88
4710
4010
3060
0F80
ENDCHAR

STARTCHAR ordfeminine
ENCODING 170
SWIDTH 365 0
DWIDTH 7 0
BBX 6 5 1 7
BITMAP
70
18
78
D8
EC
ENDCHAR

STARTCHAR guillemotleft
ENCODING 171
SWIDTH 427 0
DWIDTH 8 0
BBX 8 7 0 1
BITMAP
11
33
66
CC
66
33
11
ENDCHAR

STARTCHAR logicalnot
ENCODING 172
SWIDTH 667 0
DWIDTH 13 0
BBX 10 6 1 3
BITMAP
FFC0
FFC0
00C0
00C0
00C0
00C0
ENDCHAR

STARTCHAR hyphen
ENCODING 173
SWIDTH 417 0
DWIDTH 8 0
BBX 6 2 1 3
BITMAP
FC
FC
ENDCHAR

STARTCHAR registered
ENCODING 174
SWIDTH 750 0
DWIDTH 14 0
BBX 13 13 0 0
BITMAP
0F80
3060
4010
5F10
8D88
8D88
8F08
8D88
8D88
5DD0
4010
3060
0F80
ENDCHAR

STARTCHAR macron
ENCODING 175
SWIDTH 333 0
DWIDTH 6 0
BBX 6 2 0 9
BITMAP
FC
FC
ENDCHAR

STARTCHAR degree
ENCODING 176
SWIDTH 396 0
DWIDTH 8 0
BBX 6 6 1 6
BITMAP
78
CC
84
84
CC
78
ENDCHAR

STARTCHAR plusminus
ENCODING 177
SWIDTH 668 0
DWIDTH 13 0
BBX 10 13 1 0
BITMAP
0C00
0C00
0C00
0C00
FFC0
FFC0
0C00
0C00
0C00
0C00
0000
FFC0
FFC0
ENDCHAR

STARTCHAR twosuperior
ENCODING 178
SWIDTH 313 0
DWIDTH 6 0
BBX 5 6 0 6
BITMAP
70
D8
18
20
78
F8
ENDCHAR

STARTCHAR threesuperior
ENCODING 179
SWIDTH 313 0
DWIDTH 6 0
BBX 5 6 0 6
BITMAP
70
98
70
18
D8
70
ENDCHAR

STARTCHAR acute
ENCODING 180
SWIDTH 333 0
DWIDTH 6 0
BBX 5 3 0 9
BITMAP
38
70
C0
ENDCHAR

STARTCHAR mu
ENCODING 181
SWIDTH 552 0
DWIDTH 10 0
BBX 10 12 0 -4
BITMAP
7380
7380
7380
7380
7380
7380
7380
7DC0
4000
C000
C000
C000
ENDCHAR

STARTCHAR paragraph
ENCODING 182
SWIDTH 542 0
DWIDTH 10 0
BBX 10 16 0 -4
BITMAP
3FC0
7900
F900
F900
F900
F900
7900
3900
0900
0900
0900
0900
0900
0900
0900
0900
ENDCHAR

STARTCHAR periodcentered
ENCODING 183
SWIDTH 313 0
DWIDTH 6 0
BBX 3 3 1 4
BITMAP
E0
E0
E0
ENDCHAR

STARTCHAR cedilla
ENCODING 184
SWIDTH 333 0
DWIDTH 6 0
BBX 4 4 1 -4
BITMAP
60
70
30
E0
ENDCHAR

STARTCHAR onesuperior
ENCODING 185
SWIDTH 313 0
DWIDTH 6 0
BBX 4 6 1 7
BITMAP
20
E0
60
60
60
F0
ENDCHAR

STARTCHAR ordmasculine
ENCODING 186
SWIDTH 375 0
DWIDTH 7 0
BBX 6 6 0 6
BITMAP
78
CC
CC
CC
CC
78
ENDCHAR

STARTCHAR guillemotright
ENCODING 187
SWIDTH 427 0
DWIDTH 8 0
BBX 8 7 0 1
BITMAP
88
CC
66
33
66
CC
88
ENDCHAR

STARTCHAR onequarter
ENCODING 188
SWIDTH 823 0
DWIDTH 16 0
BBX 13 12 2 0
BITMAP
2018
E030
6060
60C0
6180
F300
0620
0C60
18E0
31F0
6060
C060
ENDCHAR

STARTCHAR onehalf
ENCODING 189
SWIDTH 823 0
DWIDTH 16 0
BBX 12 12 2 0
BITMAP
2010
E030
6060
60C0
6180
F300
06E0
0DB0
1830
3040
60F0
C1F0
ENDCHAR

STARTCHAR threequarters
ENCODING 190
SWIDTH 823 0
DWIDTH 16 0
BBX 12 12 2 0
BITMAP
7010
9830
7060
18C0
D980
7300
0620
0C60
18E0
31F0
6060
C060
ENDCHAR

STARTCHAR questiondown
ENCODING 191
SWIDTH 365 0
DWIDTH 7 0
BBX 6 13 1 -4
BITMAP
38
38
38
00
00
08
38
78
F0
C0
98
7C
38
ENDCHAR

STARTCHAR Agrave
ENCODING 192
SWIDTH 740 0
DWIDTH 14 0
BBX 14 17 0 0
BITMAP
0E00
0700
0180
0000
0000
0300
0380
0380
05C0
05C0
08E0
08E0
1FF0
1070
2038
2038
F8FC
ENDCHAR

STARTCHAR Aacute
ENCODING 193
SWIDTH 740 0
DWIDTH 14 0
BBX 14 17 0 0
BITMAP
00E0
01C0
0300
0000
0000
0300
0380
0380
05C0
05C0
08E0
08E0
1FF0
1070
2038
2038
F8FC
ENDCHAR

STARTCHAR Acircumflex
ENCODING 194
SWIDTH 740 0
DWIDTH 14 0
BBX 14 17 0 0
BITMAP
0180
03C0
0660
0000
0000
0300
0380
0380
05C0
05C0
08E0
08E0
1FF0
1070
2038
2038
F8FC
ENDCHAR

STARTCHAR Atilde
ENCODING 195
SWIDTH 740 0
DWIDTH 14 0
BBX 14 17 0 0
BITMAP
0720
0FE0
09C0
0000
0000
0300
0380
0380
05C0
05C0
08E0
08E0
1FF0
1070
2038
2038
F8FC
ENDCHAR

STARTCHAR Adieresis
ENCODING 196
SWIDTH 740 0
DWIDTH 14 0
BBX 14 16 0 0
BITMAP
0660
0660
0000
0000
0300
0380
0380
05C0
05C0
08E0
08E0
1FF0
1070
2038
2038
F8FC
ENDCHAR

STARTCHAR Aring
ENCODING 197
SWIDTH 740 0
DWIDTH 14 0
BBX 13 17 1 0
BITMAP
0600
0900
0900
0600
0000
0700
0700
0700
0B80
0B80
11C0
11C0
1FC0
20E0
20E0
4070
E0F8
ENDCHAR

STARTCHAR AE
ENCODING 198
SWIDTH 896 0
DWIDTH 17 0
BBX 17 12 0 0
BITMAP
07FF00
02E100
02E000
04E000
04E200
08FE00
08E200
1FE000
10E000
20E000
20E080
F3FF80
ENDCHAR

STARTCHAR Ccedilla
ENCODING 199
SWIDTH 740 0
DWIDTH 14 0
BBX 11 16 1 -4
BITMAP
0FE0
3860
7020
6000
E000
E000
E000
E000
6000
7020
3860
0F80
0600
0600
0300
0E00
ENDCHAR

STARTCHAR Egrave
ENCODING 200
SWIDTH 646 0
DWIDTH 12 0
BBX 11 17 0 0
BITMAP
1C00
0E00
0300
0000
0000
FFC0
3840
3800
3800
3880
3F80
3880
3800
3800
3820
3820
FFE0
ENDCHAR

STARTCHAR Eacute
ENCODING 201
SWIDTH 646 0
DWIDTH 12 0
BBX 11 17 0 0
BITMAP
0380
0700
0C00
0000
0000
FFC0
3840
3800
3800
3880
3F80
3880
3800
3800
3820
3820
FFE0
ENDCHAR

STARTCHAR Ecircumflex
ENCODING 202
SWIDTH 646 0
DWIDTH 12 0
BBX 11 17 0 0
BITMAP
0600
0F00
1980
0000
0000
FFC0
3840
3800
3800
3880
3F80
3880
3800
3800
3820
3820
FFE0
ENDCHAR

STARTCHAR Edieresis
ENCODING 203
SWIDTH 646 0
DWIDTH 12 0
BBX 11 16 0 0
BITMAP
1980
1980
0000
0000
FFC0
3840
3800
3800
3880
3F80
3880
3800
3800
3820
3820
FFE0
ENDCHAR

STARTCHAR Igrave
ENCODING 204
SWIDTH 365 0
DWIDTH 7 0
BBX 7 17 0 0
BITMAP
E0
70
18
00
00
FE
38
38
38
38
38
38
38
38
38
38
FE
ENDCHAR

STARTCHAR Iacute
ENCODING 205
SWIDTH 365 0
DWIDTH 7 0
BBX 7 17 0 0
BITMAP
1C
38
60
00
00
FE
38
38
38
38
38
38
38
38
38
38
FE
ENDCHAR

STARTCHAR Icircumflex
ENCODING 206
SWIDTH 365 0
DWIDTH 7 0
BBX 7 17 0 0
BITMAP
18
3C
66
00
00
FE
38
38
38
38
38
38
38
38
38
38
FE
ENDCHAR

STARTCHAR Idieresis
ENCODING 207
SWIDTH 365 0
DWIDTH 7 0
BBX 7 16 0 0
BITMAP
66
66
00
00
FE
38
38
38
38
38
38
38
38
38
38
FE
ENDCHAR

STARTCHAR Eth
ENCODING 208
SWIDTH 823 0
DWIDTH 16 0
BBX 15 12 0 0
BITMAP
FFE0
3838
381C
380C
380E
380E
FF0E
380E
380C
381C
3838
FFE0
ENDCHAR

STARTCHAR Ntilde
ENCODING 209
SWIDTH 813 0
DWIDTH 15 0
BBX 15 17 0 0
BITMAP
0720
0FE0
09C0
0000
0000
F03E
3808
3C08
2E08
2708
2388
21C8
20E8
2078
2038
2018
F808
ENDCHAR

STARTCHAR Ograve
ENCODING 210
SWIDTH 844 0
DWIDTH 16 0
BBX 14 17 1 0
BITMAP
0E00
0700
0180
0000
0000
0FC0
3870
7038
6018
E01C
E01C
E01C
E01C
6018
7038
3870
0FC0
ENDCHAR

STARTCHAR Oacute
ENCODING 211
SWIDTH 844 0
DWIDTH 16 0
BBX 14 17 1 0
BITMAP
01C0
0380
0600
0000
0000
0FC0
3870
7038
6018
E01C
E01C
E01C
E01C
6018
7038
3870
0FC0
ENDCHAR

STARTCHAR Ocircumflex
ENCODING 212
SWIDTH 844 0
DWIDTH 16 0
BBX 14 17 1 0
BITMAP
0300
0780
0CC0
0000
0000
0FC0
3870
7038
6018
E01C
E01C
E01C
E01C
6018
7038
3870
0FC0
ENDCHAR

STARTCHAR Otilde
ENCODING 213
SWIDTH 844 0
DWIDTH 16 0
BBX 14 17 1 0
BITMAP
0720
0FE0
09C0
0000
0000
0FC0
3870
7038
6018
E01C
E01C
E01C
E01C
6018
7038
3870
0FC0
ENDCHAR

STARTCHAR Odieresis
ENCODING 214
SWIDTH 844 0
DWIDTH 16 0
BBX 14 16 1 0
BITMAP
0CC0
0CC0
0000
0000
0FC0
3870
7038
6018
E01C
E01C
E01C
E01C
6018
7038
3870
0FC0
ENDCHAR

STARTCHAR multiply
ENCODING 215
SWIDTH 667 0
DWIDTH 13 0
BBX 10 9 1 2
BITMAP
C0C0
6180
3300
1E00
0C00
1E00
3300
6180
C0C0
ENDCHAR

STARTCHAR Oslash
ENCODING 216
SWIDTH 844 0
DWIDTH 16 0
BBX 14 14 1 -1
BITMAP
000C
0FD8
3870
7038
6078
E0DC
E19C
E31C
E61C
6C18
7838
3870
6FC0
4000
ENDCHAR

STARTCHAR Ugrave
ENCODING 217
SWIDTH 771 0
DWIDTH 15 0
BBX 15 17 0 0
BITMAP
0E00
0700
0180
0000
0000
FE3E
3808
3808
3808
3808
3808
3808
3808
3808
3808
1C10
0FE0
ENDCHAR

STARTCHAR Uacute
ENCODING 218
SWIDTH 771 0
DWIDTH 15 0
BBX 15 17 0 0
BITMAP
00E0
01C0
0300
0000
0000
FE3E
3808
3808
3808
3808
3808
3808
3808
3808
3808
1C10
0FE0
ENDCHAR

STARTCHAR Ucircumflex
ENCODING 219
SWIDTH 771 0
DWIDTH 15 0
BBX 15 17 0 0
BITMAP
0180
03C0
0660
0000
0000
FE3E
3808
3808
3808
3808
3808
3808
3808
3808
3808
1C10
0FE0
ENDCHAR

STARTCHAR Udieresis
ENCODING 220
SWIDTH 771 0
DWIDTH 15 0
BBX 15 16 0 0
BITMAP
0C60
0C60
0000
0000
FE3E
3808
3808
3808
3808
3808
3808
3808
3808
3808
1C10
0FE0
ENDCHAR

STARTCHAR Yacute
ENCODING 221
SWIDTH 750 0
DWIDTH 14 0
BBX 14 17 0 0
BITMAP
01C0
0380
0600
0000
0000
FC7C
3810
1C20
0E40
0780
0380
0380
0380
0380
0380
0380
0FE0
ENDCHAR

STARTCHAR Thorn
ENCODING 222
SWIDTH 646 0
DWIDTH 12 0
BBX 11 12 0 0
BITMAP
FE00
3800
3F00
39C0
38E0
38E0
38E0
38E0
39C0
3F80
3800
FE00
ENDCHAR

STARTCHAR germandbls
ENCODING 223
SWIDTH 563 0
DWIDTH 11 0
BBX 10 13 0 0
BITMAP
0E00
3300
3380
7380
7300
7200
7700
7180
71C0
71C0
71C0
6380
CF00
ENDCHAR

STARTCHAR agrave
ENCODING 224
SWIDTH 479 0
DWIDTH 9 0
BBX 8 13 0 0
BITMAP
70
38
0C
00
00
3C
6E
0E
3E
6E
CE
EE
77
ENDCHAR

STARTCHAR aacute
ENCODING 225
SWIDTH 479 0
DWIDTH 9 0
BBX 8 13 0 0
BITMAP
0E
1C
30
00
00
3C
6E
0E
3E
6E
CE
EE
77
ENDCHAR

STARTCHAR acircumflex
ENCODING 226
SWIDTH 479 0
DWIDTH 9 0
BBX 8 13 0 0
BITMAP
0C
1E
33
00
00
3C
6E
0E
3E
6E
CE
EE
77
ENDCHAR

STARTCHAR atilde
ENCODING 227
SWIDTH 479 0
DWIDTH 9 0
BBX 8 13 0 0
BITMAP
39
7F
4E
00
00
3C
6E
0E
3E
6E
CE
EE
77
ENDCHAR

STARTCHAR adieresis
ENCODING 228
SWIDTH 479 0
DWIDTH 9 0
BBX 8 12 0 0
BITMAP
66
66
00
00
3C
6E
0E
3E
6E
CE
EE
77
ENDCHAR

STARTCHAR aring
ENCODING 229
SWIDTH 479 0
DWIDTH 9 0
BBX 8 14 0 0
BITMAP
0C
12
12
0C
00
00
3C
6E
0E
3E
6E
CE
EE
77
ENDCHAR

STARTCHAR ae
ENCODING 230
SWIDTH 698 0
DWIDTH 13 0
BBX 11 8 0 0
BITMAP
3B80
6EC0
0EE0
3FE0
6E00
CE00
EF20
73C0
ENDCHAR

STARTCHAR ccedilla
ENCODING 231
SWIDTH 490 0
DWIDTH 9 0
BBX 7 12 1 -4
BITMAP
3C
66
E2
E0
E0
E0
72
3C
10
18
0C
38
ENDCHAR

STARTCHAR egrave
ENCODING 232
SWIDTH 479 0
DWIDTH 9 0
BBX 7 13 1 0
BITMAP
70
38
0C
00
00
38
6C
EE
FE
E0
E0
72
3C
ENDCHAR

STARTCHAR eacute
ENCODING 233
SWIDTH 479 0
DWIDTH 9 0
BBX 7 13 1 0
BITMAP
0E
1C
30
00
00
38
6C
EE
FE
E0
E0
72
3C
ENDCHAR

STARTCHAR ecircumflex
ENCODING 234
SWIDTH 479 0
DWIDTH 9 0
BBX 7 13 1 0
BITMAP
18
3C
66
00
00
38
6C
EE
FE
E0
E0
72
3C
ENDCHAR

STARTCHAR edieresis
ENCODING 235
SWIDTH 479 0
DWIDTH 9 0
BBX 7 12 1 0
BITMAP
66
66
00
00
38
6C
EE
FE
E0
E0
72
3C
ENDCHAR

STARTCHAR igrave
ENCODING 236
SWIDTH 292 0
DWIDTH 6 0
BBX 5 13 0 0
BITMAP
E0
70
18
00
00
30
F0
70
70
70
70
70
F8
ENDCHAR

STARTCHAR iacute
ENCODING 237
SWIDTH 292 0
DWIDTH 6 0
BBX 5 13 0 0
BITMAP
38
70
C0
00
00
30
F0
70
70
70
70
70
F8
ENDCHAR

STARTCHAR icircumflex
ENCODING 238
SWIDTH 292 0
DWIDTH 6 0
BBX 6 13 0 0
BITMAP
30
78
CC
00
00
30
F0
70
70
70
70
70
F8
ENDCHAR

STARTCHAR idieresis
ENCODING 239
SWIDTH 292 0
DWIDTH 6 0
BBX 6 12 0 0
BITMAP
CC
CC
00
00
30
F0
70
70
70
70
70
F8
ENDCHAR

STARTCHAR eth
ENCODING 240
SWIDTH 563 0
DWIDTH 11 0
BBX 9 13 0 0
BITMAP
3300
0E00
1C00
3600
0300
3F00
6780
E380
E380
E380
E380
7300
3E00
ENDCHAR

STARTCHAR ntilde
ENCODING 241
SWIDTH 573 0
DWIDTH 11 0
BBX 10 13 0 0
BITMAP
3900
7F00
4E00
0000
0000
3700
FB80
7380
7380
7380
7380
7380
FBC0
ENDCHAR

STARTCHAR ograve
ENCODING 242
SWIDTH 573 0
DWIDTH 11 0
BBX 8 13 1 0
BITMAP
70
38
0C
00
00
3C
6E
E7
E7
E7
E7
76
3C
ENDCHAR

STARTCHAR oacute
ENCODING 243
SWIDTH 573 0
DWIDTH 11 0
BBX 8 13 1 0
BITMAP
0E
1C
30
00
00
3C
6E
E7
E7
E7
E7
76
3C
ENDCHAR

STARTCHAR ocircumflex
ENCODING 244
SWIDTH 573 0
DWIDTH 11 0
BBX 8 13 1 0
BITMAP
18
3C
66
00
00
3C
6E
E7
E7
E7
E7
76
3C
ENDCHAR

STARTCHAR otilde
ENCODING 245
SWIDTH 573 0
DWIDTH 11 0
BBX 8 13 1 0
BITMAP
39
7F
4E
00
00
3C
6E
E7
E7
E7
E7
76
3C
ENDCHAR

STARTCHAR odieresis
ENCODING 246
SWIDTH 573 0
DWIDTH 11 0
BBX 8 12 1 0
BITMAP
36
36
00
00
3C
6E
E7
E7
E7
E7
76
3C
ENDCHAR

STARTCHAR divide
ENCODING 247
SWIDTH 668 0
DWIDTH 13 0
BBX 10 10 1 1
BITMAP
0C00
0C00
0000
0000
FFC0
FFC0
0000
0000
0C00
0C00
ENDCHAR

STARTCHAR oslash
ENCODING 248
SWIDTH 573 0
DWIDTH 11 0
BBX 8 8 1 0
BITMAP
3D
6E
E7
EF
F7
F7
76
BC
ENDCHAR

STARTCHAR ugrave
ENCODING 249
SWIDTH 573 0
DWIDTH 11 0
BBX 10 13 0 0
BITMAP
3800
1C00
0600
0000
0000
3180
F780
7380
7380
7380
7380
7780
3BC0
ENDCHAR

STARTCHAR uacute
ENCODING 250
SWIDTH 573 0
DWIDTH 11 0
BBX 10 13 0 0
BITMAP
0700
0E00
1800
0000
0000
3180
F780
7380
7380
7380
7380
7780
3BC0
ENDCHAR

STARTCHAR ucircumflex
ENCODING 251
SWIDTH 573 0
DWIDTH 11 0
BBX 10 13 0 0
BITMAP
0C00
1E00
3300
0000
0000
3180
F780
7380
7380
7380
7380
7780
3BC0
ENDCHAR

STARTCHAR udieresis
ENCODING 252
SWIDTH 573 0
DWIDTH 11 0
BBX 10 12 0 0
BITMAP
3300
3300
0000
0000
3180
F780
7380
7380
7380
7380
7780
3BC0
ENDCHAR

STARTCHAR yacute
ENCODING 253
SWIDTH 521 0
DWIDTH 10 0
BBX 10 17 0 -4
BITMAP
0700
0E00
1800
0000
0000
FBC0
7080
7100
3900
3A00
1E00
0C00
0C00
0800
1000
7000
6000
ENDCHAR

STARTCHAR thorn
ENCODING 254
SWIDTH 573 0
DWIDTH 11 0
BBX 9 17 0 -4
BITMAP
3000
F000
7000
7000
7000
7700
7B80
7380
7380
7380
7380
7B80
7700
7000
7000
7000
F800
ENDCHAR

STARTCHAR ydieresis
ENCODING 255
SWIDTH 521 0
DWIDTH 10 0
BBX 10 16 0 -4
BITMAP
3300
3300
0000
0000
FBC0
7080
7100
3900
3A00
1E00
0C00
0C00
0800
1000
7000
6000
ENDCHAR
ENDFONT
